{"title":"Elio Petri's La Classe Operaia Va In Paradiso (1971) - DVDRip x2","uid":14742955,"size":2987141847,"categoryP":"video","categoryS":"movies_dvdr","magnet":"?xt=urn:btih:3b15c1bef6d057d1b9f52d9049accd3ef6f48ae7&amp;dn=Elio+Petri%27s+La+Classe+Operaia+Va+In+Paradiso+%281971%29+-+DVDRip+x2&amp;tr=udp%3A%2F%2Ftracker.leechers-paradise.org%3A6969&amp;tr=udp%3A%2F%2Fzer0day.ch%3A1337&amp;tr=udp%3A%2F%2Fopen.demonii.com%3A1337&amp;tr=udp%3A%2F%2Ftracker.coppersurfer.tk%3A6969&amp;tr=udp%3A%2F%2Fexodus.desync.com%3A6969","seeders":1,"leechers":0,"uploader":"BRSHNKV","files":3,"time":1464697404,"description":"A conscientious factory worker gets his finger cut off by a machine. Although the physical handicap is not serious, the accident causes him to become more involved in political and revolutionary groups.\r\n\r\n\r\n\r\nTechnical x264:\r\n\r\n\r\nFormat : MPEG-4\r\nFormat profile : Base Media / Version 2\r\nCodec ID : mp42\r\nFile size : 1.51 GiB\r\nDuration : 1h 50mn\r\nOverall bit rate mode : Variable\r\nOverall bit rate : 1 949 Kbps\r\nEncoded date : UTC 2016-05-27 11:05:11\r\nTagged date : UTC 2016-05-27 11:05:11\r\nWriting application : HandBrake 0.10.2 2015061100\r\n\r\nVideo\r\nID : 1\r\nFormat : AVC\r\nFormat/Info : Advanced Video Codec\r\nFormat profile :   \r\nFormat settings, CABAC : Yes\r\nFormat settings, ReFrames : 4 frames\r\nCodec ID : avc1\r\nCodec ID/Info : Advanced Video Coding\r\nDuration : 1h 50mn\r\nBit rate : 1 800 Kbps\r\nWidth : 720 pixels\r\nHeight : 548 pixels\r\nDisplay aspect ratio : 1.85:1\r\nOriginal display aspect ratio : 1.85:1\r\nFrame rate mode : Constant\r\nFrame rate : 50.000 fps\r\nColor space : YUV\r\nChroma subsampling : 4:2:0\r\nBit depth : 8 bits\r\nScan type : Progressive\r\nBits/(Pixel*Frame) : 0.091\r\nStream size : 1.39 GiB (92%)\r\nWriting library : x264 core 142 r2479 dd79a61\r\nEncoded date : UTC 2016-05-27 11:05:11\r\nTagged date : UTC 2016-05-27 11:05:11\r\nColor range : Limited\r\nColor primaries : BT.601 NTSC\r\nTransfer characteristics : BT.709\r\nMatrix coefficients : BT.601\r\n\r\nAudio\r\nID : 2\r\nFormat : AAC\r\nFormat/Info : Advanced Audio Codec\r\nFormat profile : LC\r\nCodec ID : 40\r\nDuration : 1h 50mn\r\nBit rate mode : Variable\r\nBit rate : 144 Kbps\r\nChannel(s) : 2 channels\r\nChannel positions : Front: L R\r\nSampling rate : 48.0 KHz\r\nCompression mode : Lossy\r\nStream size : 112 MiB (7%)\r\nTitle : Stereo / Stereo\r\nEncoded date : UTC 2016-05-27 11:05:11\r\nTagged date : UTC 2016-05-27 11:05:11\r\n\r\n_____________________________\r\n\r\n\r\nTechnical x265:\r\n\r\n\r\nFormat : MPEG-4\r\nFormat profile : Base Media / Version 2\r\nCodec ID : mp42\r\nFile size : 1.28 GiB\r\nDuration : 1h 50mn\r\nOverall bit rate mode : Variable\r\nOverall bit rate : 1 653 Kbps\r\nEncoded date : UTC 2016-05-27 20:28:55\r\nTagged date : UTC 2016-05-27 20:28:55\r\nWriting application : HandBrake 20160211184813-ffd8cb1-master 2016021301\r\n\r\nVideo\r\nID : 1\r\nFormat : HEVC\r\nFormat/Info : High Efficiency Video Coding\r\nFormat profile : Main   @Main\r\nCodec ID : hev1\r\nCodec ID/Info : High Efficiency Video Coding\r\nDuration : 1h 50mn\r\nBit rate : 1 502 Kbps\r\nWidth : 720 pixels\r\nHeight : 548 pixels\r\nDisplay aspect ratio : 1.85:1\r\nOriginal display aspect ratio : 1.85:1\r\nFrame rate mode : Constant\r\nFrame rate : 50.000 fps\r\nColor space : YUV\r\nChroma subsampling : 4:2:0\r\nBit depth : 10 bits\r\nBits/(Pixel*Frame) : 0.076\r\nStream size : 1.16 GiB (91%)\r\nWriting library : x265 1.9:[Mac OS X][clang 7.0.2][64 bit] 10bit\r\nEncoded date : UTC 2016-05-27 20:28:55\r\nTagged date : UTC 2016-05-27 20:28:55\r\nColor range : Limited\r\nColor primaries : BT.601 NTSC\r\nTransfer characteristics : BT.709\r\nMatrix coefficients : BT.601\r\n\r\nAudio\r\nID : 2\r\nFormat : AAC\r\nFormat/Info : Advanced Audio Codec\r\nFormat profile : LC\r\nCodec ID : 40\r\nDuration : 1h 50mn\r\nBit rate mode : Variable\r\nBit rate : 144 Kbps\r\nChannel(s) : 2 channels\r\nChannel positions : Front: L R\r\nSampling rate : 48.0 KHz\r\nCompression mode : Lossy\r\nStream size : 112 MiB (9%)\r\nTitle : Stereo / Stereo\r\nEncoded date : UTC 2016-05-27 20:28:55\r\nTagged date : UTC 2016-05-27 20:28:55","torrent":{"xt":"urn:btih:3b15c1bef6d057d1b9f52d9049accd3ef6f48ae7","amp;dn":"Elio+Petri%27s+La+Classe+Operaia+Va+In+Paradiso+%281971%29+-+DVDRip+x2","amp;tr":["udp%3A%2F%2Ftracker.leechers-paradise.org%3A6969","udp%3A%2F%2Fzer0day.ch%3A1337","udp%3A%2F%2Fopen.demonii.com%3A1337","udp%3A%2F%2Ftracker.coppersurfer.tk%3A6969","udp%3A%2F%2Fexodus.desync.com%3A6969"],"infoHash":"3b15c1bef6d057d1b9f52d9049accd3ef6f48ae7","infoHashBuffer":{"type":"Buffer","data":[59,21,193,190,246,208,87,209,185,245,45,144,73,172,205,62,246,244,138,231]},"announce":[],"urlList":[]}}